<svg width="208" height="23" viewBox="0 0 208 23" fill="none" xmlns="http://www.w3.org/2000/svg">
<g filter="url(#filter0_d_49_74)">
<path d="M198.607 1.23264C195.333 4.29896 194.201 7.04695 187.188 8.54568C178.555 10.392 169.962 5.98673 165.708 2.37471C164.24 1.12805 160.68 0.888328 159.309 2.37471C153.3 8.88999 139.991 7.29901 134.312 1.01111C132.916 -0.53569 128.195 -0.259588 127.615 1.51004C124.424 11.2573 110.096 12.2889 100.501 5.22405C101.548 3.3219 96.0846 2.02715 94.5951 3.88903C86.5402 13.9605 70.8144 12.8353 61.6871 3.84746C60.103 2.28766 56.5542 2.83467 55.5308 4.30611C48.1129 14.9759 36.5594 9.90019 30.076 2.55597C28.8133 1.1248 25.212 1.62047 24.4508 2.97498C20.9077 9.28302 15.0705 10.4608 5.23659 12.0927C3.38469 12.4007 3.67073 14.2327 5.70725 14.078C16.9748 13.2218 23.1288 12.0791 27.734 7.29576C37.1953 15.7177 50.4036 17.438 59.2665 8.57622C70.7586 16.7767 89.2194 17.7115 98.3661 7.95515C108.526 15.8334 125.565 15.4455 132.388 6.8605C141.19 12.7794 154.002 13.611 162.866 6.98719C176.057 14.5477 203.036 16.2401 203.997 2.06678C204.117 0.37641 200.055 -0.124463 198.607 1.23264Z" fill="#00B2A0"/>
</g>
<defs>
<filter id="filter0_d_49_74" x="0" y="0" width="208" height="23" filterUnits="userSpaceOnUse" color-interpolation-filters="sRGB">
<feFlood flood-opacity="0" result="BackgroundImageFix"/>
<feColorMatrix in="SourceAlpha" type="matrix" values="0 0 0 0 0 0 0 0 0 0 0 0 0 0 0 0 0 0 127 0" result="hardAlpha"/>
<feOffset dy="4"/>
<feGaussianBlur stdDeviation="2"/>
<feComposite in2="hardAlpha" operator="out"/>
<feColorMatrix type="matrix" values="0 0 0 0 0 0 0 0 0 0 0 0 0 0 0 0 0 0 0.25 0"/>
<feBlend mode="normal" in2="BackgroundImageFix" result="effect1_dropShadow_49_74"/>
<feBlend mode="normal" in="SourceGraphic" in2="effect1_dropShadow_49_74" result="shape"/>
</filter>
</defs>
</svg>
